<svg version="1.2" baseProfile="tiny" viewBox="0 0 36.267 28.231" xmlns:xlink="http://www.w3.org/1999/xlink" xmlns="http://www.w3.org/2000/svg">
<path style="fill:#ffffff;" d="M28.607,26.7319C28.607,27.0329,28.607,27.2319,28.4061,27.2319L7.858,27.2319L7.858,27.2319C7.6571,27.2319,7.6571,27.034,7.6571,26.7319L7.6571,19.4331C7.6571,19.1319,7.6571,18.9331,7.858,18.9331L28.4061,18.9331C28.607,18.9331,28.607,19.1319,28.607,19.4331L28.607,26.7319M28.0489,18.419C28.2418,18.419,28.3989,18.2621,28.3989,18.069C28.3989,17.8759,28.2418,17.7189,28.0489,17.7189C28.0489,17.7189,27.9981,17.7189,27.9981,17.6469C27.9981,17.5749,27.9981,16.6001,27.9981,16.492C27.9981,16.2921,27.9321,16.1589,27.6648,16.1589C27.4149,16.1589,8.8651,16.1589,8.5982,16.1589C8.3309,16.1589,8.2649,16.2921,8.2649,16.492C8.2649,16.6001,8.2649,17.5769,8.2649,17.6469C8.2649,17.7169,8.2141,17.7189,8.2141,17.7189C8.0212,17.7189,7.8641,17.8759,7.8641,18.069C7.8641,18.2621,8.0212,18.419,8.2141,18.419C8.2141,18.419,8.2649,18.4241,8.2649,18.491C8.2649,18.5579,8.2649,18.6531,8.2649,18.692C8.2649,18.8919,8.1652,18.9331,8.0321,18.9331L28.232,18.9331C28.0989,18.9331,27.9988,18.8919,27.9988,18.692C27.9988,18.6531,27.9988,18.561,27.9988,18.491C27.9988,18.4221,28.0489,18.419,28.0489,18.419Z"/>
</svg>